<svg width="163" height="38" viewBox="0 0 163 38" fill="none" xmlns="http://www.w3.org/2000/svg">
<path d="M20.2868 11.2078H16.9634V21.1396H16.8246L10.008 11.2078H7.07783V27H10.4167V17.0605H10.5324L17.4029 27H20.2868V11.2078ZM28.5986 27.2313C31.5288 27.2313 33.5029 25.8048 33.9655 23.6071L30.9274 23.4067C30.5958 24.3088 29.7476 24.7792 28.6526 24.7792C27.0102 24.7792 25.9692 23.692 25.9692 21.9261V21.9184H34.0349V21.0162C34.0349 16.9911 31.5982 15.0016 28.4676 15.0016C24.9822 15.0016 22.7228 17.4769 22.7228 21.1319C22.7228 24.8872 24.9513 27.2313 28.5986 27.2313ZM25.9692 19.8827C26.0386 18.5333 27.0642 17.4537 28.5215 17.4537C29.9481 17.4537 30.9351 18.4716 30.9428 19.8827H25.9692ZM38.6474 27H42.1173L44.153 19.5511H44.2996L46.3353 27H49.813L53.0285 15.1558H49.7127L47.9083 23.0674H47.8081L45.8649 15.1558H42.6031L40.6908 23.1136H40.5828L38.7476 15.1558H35.4242L38.6474 27ZM60.3024 27H67.0496C70.5967 27 72.4859 25.1494 72.4859 22.6356C72.4859 20.2991 70.8126 18.888 69.0159 18.8032V18.6489C70.6584 18.2788 71.869 17.1144 71.869 15.2561C71.869 12.8888 70.1109 11.2078 66.6255 11.2078H60.3024V27ZM63.6413 24.2703V20.0755H66.4404C68.0443 20.0755 69.039 21.0008 69.039 22.304C69.039 23.4915 68.2294 24.2703 66.3633 24.2703H63.6413ZM63.6413 17.8162V13.9067H66.1782C67.6588 13.9067 68.4993 14.67 68.4993 15.8113C68.4993 17.0605 67.4814 17.8162 66.1166 17.8162H63.6413ZM82.4093 21.957C82.417 23.5455 81.3297 24.3782 80.15 24.3782C78.9085 24.3782 78.1065 23.5069 78.0988 22.1112V15.1558H74.8139V22.6972C74.8216 25.4655 76.4409 27.1542 78.8237 27.1542C80.6049 27.1542 81.8849 26.2366 82.417 24.8486H82.5404V27H85.6942V15.1558H82.4093V21.957ZM98.3936 18.5333C98.1006 16.3511 96.3424 15.0016 93.3506 15.0016C90.3201 15.0016 88.323 16.405 88.3307 18.6875C88.323 20.461 89.4411 21.61 91.7544 22.0726L93.8055 22.4813C94.8388 22.6895 95.3092 23.0674 95.3246 23.6611C95.3092 24.3628 94.5458 24.864 93.3968 24.864C92.2247 24.864 91.4459 24.3628 91.2454 23.3989L88.0145 23.5686C88.323 25.8356 90.2507 27.2313 93.3891 27.2313C96.4581 27.2313 98.6557 25.666 98.6635 23.3295C98.6557 21.6177 97.5376 20.5921 95.2398 20.1218L93.0961 19.6899C91.9934 19.4509 91.5847 19.0731 91.5924 18.5024C91.5847 17.793 92.3867 17.3304 93.4045 17.3304C94.5458 17.3304 95.2243 17.955 95.3863 18.7183L98.3936 18.5333ZM100.949 27H104.234V15.1558H100.949V27ZM102.599 13.6291C103.579 13.6291 104.381 12.8811 104.381 11.9635C104.381 11.0536 103.579 10.3056 102.599 10.3056C101.628 10.3056 100.826 11.0536 100.826 11.9635C100.826 12.8811 101.628 13.6291 102.599 13.6291ZM110.367 20.1526C110.375 18.6258 111.285 17.7313 112.611 17.7313C113.93 17.7313 114.724 18.595 114.716 20.0446V27H118.001V19.4586C118.001 16.6981 116.382 15.0016 113.915 15.0016C112.156 15.0016 110.884 15.8653 110.352 17.2455H110.213V15.1558H107.083V27H110.367V20.1526ZM126.205 27.2313C129.135 27.2313 131.109 25.8048 131.572 23.6071L128.534 23.4067C128.202 24.3088 127.354 24.7792 126.259 24.7792C124.617 24.7792 123.576 23.692 123.576 21.9261V21.9184H131.641V21.0162C131.641 16.9911 129.205 15.0016 126.074 15.0016C122.589 15.0016 120.329 17.4769 120.329 21.1319C120.329 24.8872 122.558 27.2313 126.205 27.2313ZM123.576 19.8827C123.645 18.5333 124.671 17.4537 126.128 17.4537C127.555 17.4537 128.542 18.4716 128.549 19.8827H123.576ZM143.857 18.5333C143.564 16.3511 141.806 15.0016 138.814 15.0016C135.784 15.0016 133.786 16.405 133.794 18.6875C133.786 20.461 134.904 21.61 137.218 22.0726L139.269 22.4813C140.302 22.6895 140.773 23.0674 140.788 23.6611C140.773 24.3628 140.009 24.864 138.86 24.864C137.688 24.864 136.909 24.3628 136.709 23.3989L133.478 23.5686C133.786 25.8356 135.714 27.2313 138.853 27.2313C141.922 27.2313 144.119 25.666 144.127 23.3295C144.119 21.6177 143.001 20.5921 140.703 20.1218L138.56 19.6899C137.457 19.4509 137.048 19.0731 137.056 18.5024C137.048 17.793 137.85 17.3304 138.868 17.3304C140.009 17.3304 140.688 17.955 140.85 18.7183L143.857 18.5333ZM156.267 18.5333C155.974 16.3511 154.216 15.0016 151.224 15.0016C148.194 15.0016 146.197 16.405 146.204 18.6875C146.197 20.461 147.315 21.61 149.628 22.0726L151.679 22.4813C152.712 22.6895 153.183 23.0674 153.198 23.6611C153.183 24.3628 152.419 24.864 151.27 24.864C150.098 24.864 149.32 24.3628 149.119 23.3989L145.888 23.5686C146.197 25.8356 148.124 27.2313 151.263 27.2313C154.332 27.2313 156.529 25.666 156.537 23.3295C156.529 21.6177 155.411 20.5921 153.113 20.1218L150.97 19.6899C149.867 19.4509 149.458 19.0731 149.466 18.5024C149.458 17.793 150.26 17.3304 151.278 17.3304C152.419 17.3304 153.098 17.955 153.26 18.7183L156.267 18.5333Z" fill="white"/>
</svg>
