<svg width="163" height="38" viewBox="0 0 163 38" fill="none" xmlns="http://www.w3.org/2000/svg">
<path d="M8.01122 13.9606H12.846V27H16.1464V13.9606H20.9812V11.2078H8.01122V13.9606ZM25.0384 27.2236C26.7888 27.2236 27.9224 26.4602 28.5007 25.3575H28.5932V27H31.7085V19.0114C31.7085 16.1891 29.3181 15.0016 26.6809 15.0016C23.8432 15.0016 21.9771 16.3588 21.5222 18.5179L24.5603 18.7646C24.784 17.9781 25.4857 17.3998 26.6655 17.3998C27.7836 17.3998 28.4236 17.9627 28.4236 18.9343V18.9805C28.4236 19.7439 27.6139 19.8442 25.5551 20.0446C23.2109 20.2606 21.1058 21.0471 21.1058 23.692C21.1058 26.0361 22.7791 27.2236 25.0384 27.2236ZM25.9792 24.9566C24.969 24.9566 24.2442 24.4862 24.2442 23.584C24.2442 22.6587 25.0076 22.2037 26.1642 22.0418C26.8814 21.9416 28.0534 21.7719 28.4467 21.5097V22.7666C28.4467 24.0081 27.4211 24.9566 25.9792 24.9566ZM37.759 11.2078H34.4741V27H37.759V11.2078ZM40.6075 27H43.8925V23.237L44.7792 22.2269L48.0101 27H51.858L47.239 20.2837L51.6343 15.1558H47.8636L44.0698 19.6514H43.8925V11.2078H40.6075V27Z" fill="#6610F2"/>
<path d="M58.7676 27H65.5147C69.0618 27 70.951 25.1494 70.951 22.6356C70.951 20.2991 69.2777 18.888 67.4811 18.8032V18.6489C69.1235 18.2788 70.3341 17.1144 70.3341 15.2561C70.3341 12.8888 68.576 11.2078 65.0906 11.2078H58.7676V27ZM62.1065 24.2703V20.0755H64.9056C66.5095 20.0755 67.5042 21.0008 67.5042 22.304C67.5042 23.4915 66.6945 24.2703 64.8285 24.2703H62.1065ZM62.1065 17.8162V13.9067H64.6434C66.1239 13.9067 66.9644 14.67 66.9644 15.8113C66.9644 17.0605 65.9466 17.8162 64.5817 17.8162H62.1065ZM80.8744 21.957C80.8822 23.5455 79.7949 24.3782 78.6151 24.3782C77.3736 24.3782 76.5717 23.5069 76.564 22.1112V15.1558H73.2791V22.6972C73.2868 25.4655 74.9061 27.1542 77.2888 27.1542C79.0701 27.1542 80.3501 26.2366 80.8822 24.8486H81.0055V27H84.1593V15.1558H80.8744V21.957ZM96.8587 18.5333C96.5657 16.3511 94.8076 15.0016 91.8157 15.0016C88.7853 15.0016 86.7881 16.405 86.7958 18.6875C86.7881 20.461 87.9062 21.61 90.2195 22.0726L92.2707 22.4813C93.3039 22.6895 93.7743 23.0674 93.7897 23.6611C93.7743 24.3628 93.0109 24.864 91.862 24.864C90.6899 24.864 89.9111 24.3628 89.7106 23.3989L86.4797 23.5686C86.7881 25.8356 88.7159 27.2313 91.8543 27.2313C94.9233 27.2313 97.1209 25.666 97.1286 23.3295C97.1209 21.6177 96.0028 20.5921 93.7049 20.1218L91.5612 19.6899C90.4586 19.4509 90.0499 19.0731 90.0576 18.5024C90.0499 17.793 90.8518 17.3304 91.8697 17.3304C93.0109 17.3304 93.6895 17.955 93.8514 18.7183L96.8587 18.5333ZM99.4142 27H102.699V15.1558H99.4142V27ZM101.064 13.6291C102.044 13.6291 102.846 12.8811 102.846 11.9635C102.846 11.0536 102.044 10.3056 101.064 10.3056C100.093 10.3056 99.2909 11.0536 99.2909 11.9635C99.2909 12.8811 100.093 13.6291 101.064 13.6291ZM108.833 20.1526C108.84 18.6258 109.75 17.7313 111.077 17.7313C112.395 17.7313 113.189 18.595 113.182 20.0446V27H116.467V19.4586C116.467 16.6981 114.847 15.0016 112.38 15.0016C110.622 15.0016 109.349 15.8653 108.817 17.2455H108.678V15.1558H105.548V27H108.833V20.1526ZM124.67 27.2313C127.601 27.2313 129.575 25.8048 130.037 23.6071L126.999 23.4067C126.668 24.3088 125.819 24.7792 124.724 24.7792C123.082 24.7792 122.041 23.692 122.041 21.9261V21.9184H130.107V21.0162C130.107 16.9911 127.67 15.0016 124.539 15.0016C121.054 15.0016 118.795 17.4769 118.795 21.1319C118.795 24.8872 121.023 27.2313 124.67 27.2313ZM122.041 19.8827C122.11 18.5333 123.136 17.4537 124.593 17.4537C126.02 17.4537 127.007 18.4716 127.015 19.8827H122.041ZM142.322 18.5333C142.029 16.3511 140.271 15.0016 137.279 15.0016C134.249 15.0016 132.252 16.405 132.259 18.6875C132.252 20.461 133.37 21.61 135.683 22.0726L137.734 22.4813C138.767 22.6895 139.238 23.0674 139.253 23.6611C139.238 24.3628 138.474 24.864 137.325 24.864C136.153 24.864 135.375 24.3628 135.174 23.3989L131.943 23.5686C132.252 25.8356 134.179 27.2313 137.318 27.2313C140.387 27.2313 142.584 25.666 142.592 23.3295C142.584 21.6177 141.466 20.5921 139.168 20.1218L137.025 19.6899C135.922 19.4509 135.513 19.0731 135.521 18.5024C135.513 17.793 136.315 17.3304 137.333 17.3304C138.474 17.3304 139.153 17.955 139.315 18.7183L142.322 18.5333ZM154.732 18.5333C154.439 16.3511 152.681 15.0016 149.689 15.0016C146.659 15.0016 144.662 16.405 144.669 18.6875C144.662 20.461 145.78 21.61 148.093 22.0726L150.144 22.4813C151.178 22.6895 151.648 23.0674 151.663 23.6611C151.648 24.3628 150.885 24.864 149.736 24.864C148.564 24.864 147.785 24.3628 147.584 23.3989L144.353 23.5686C144.662 25.8356 146.59 27.2313 149.728 27.2313C152.797 27.2313 154.995 25.666 155.002 23.3295C154.995 21.6177 153.876 20.5921 151.579 20.1218L149.435 19.6899C148.332 19.4509 147.924 19.0731 147.931 18.5024C147.924 17.793 148.725 17.3304 149.743 17.3304C150.885 17.3304 151.563 17.955 151.725 18.7183L154.732 18.5333Z" fill="black"/>
</svg>
